<?xml version="1.0" encoding="utf-8"?>
<svg xmlns="http://www.w3.org/2000/svg" fill="none" height="48" viewBox="0 0 180 48" width="180">
<path clip-rule="evenodd" d="M134.562 19.2811C134.562 25.2327 129.723 30.0574 123.754 30.0574C117.784 30.0574 112.945 25.2327 112.945 19.2811C112.945 13.3296 117.784 8.50488 123.754 8.50488C129.723 8.50488 134.562 13.3296 134.562 19.2811ZM130.129 19.2807C130.129 22.7934 127.277 25.6363 123.754 25.6363C120.231 25.6363 117.38 22.7934 117.38 19.2807C117.38 15.768 120.231 12.9251 123.754 12.9251C127.277 12.9251 130.129 15.768 130.129 19.2807Z" fill="white" fill-rule="evenodd"/>
<path clip-rule="evenodd" d="M111.648 19.2811C111.648 25.2327 106.809 30.0574 100.839 30.0574C94.8703 30.0574 90.0312 25.2327 90.0312 19.2811C90.0312 13.3296 94.8703 8.50488 100.839 8.50488C106.809 8.50488 111.648 13.3296 111.648 19.2811ZM107.215 19.2808C107.215 22.7935 104.363 25.6364 100.84 25.6364C97.3169 25.6364 94.4656 22.7935 94.4656 19.2808C94.4656 15.7681 97.3169 12.9252 100.84 12.9252C104.363 12.9252 107.215 15.7681 107.215 19.2808Z" fill="white" fill-rule="evenodd"/>
<path clip-rule="evenodd" d="M89.0305 19.2803V19.191C89.0454 19.1612 89.0454 19.1165 89.0454 19.0868V3.80059C89.0454 2.62473 88.0751 1.65725 86.8957 1.65725C86.6131 1.65606 86.333 1.7107 86.0717 1.81799C85.8103 1.92529 85.5729 2.08312 85.373 2.28238C85.1732 2.48164 85.0149 2.71839 84.9073 2.97897C84.7996 3.23954 84.7448 3.51879 84.746 3.80059V10.6771C82.9248 9.32266 80.6706 8.50403 78.2223 8.50403C72.2509 8.50403 67.4141 13.3265 67.4141 19.2803C67.4141 25.234 72.2509 30.0565 78.2223 30.0565C84.1937 30.0565 89.0305 25.234 89.0305 19.2803ZM84.5971 19.28C84.5971 22.7901 81.7431 25.6356 78.2226 25.6356C74.7021 25.6356 71.8482 22.7901 71.8482 19.28C71.8482 15.7699 74.7021 12.9244 78.2226 12.9244C81.7431 12.9244 84.5971 15.7699 84.5971 19.28Z" fill="white" fill-rule="evenodd"/>
<path clip-rule="evenodd" d="M66.6164 19.2513C66.6164 25.2029 61.7774 30.0276 55.8082 30.0276C49.839 30.0276 45 25.2029 45 19.2513C45 13.2998 49.839 8.4751 55.8082 8.4751C61.7774 8.4751 66.6164 13.2998 66.6164 19.2513ZM62.0758 19.2959C62.0758 22.806 59.2219 25.6515 55.7014 25.6515C52.1809 25.6515 49.3269 22.806 49.3269 19.2959C49.3269 15.7858 52.1809 12.9403 55.7014 12.9403C59.2219 12.9403 62.0758 15.7858 62.0758 19.2959Z" fill="white" fill-rule="evenodd"/>
<rect fill="#E4A900" height="12.0308" width="50.7011" x="83.6758" y="34.3125"/>
<path d="M129.022 40.9118V42.9055H128.238V39.1175H129.022V39.6675C129.242 39.2894 129.62 39.0557 130.156 39.0557V39.8669H129.957C129.379 39.8669 129.022 40.1075 129.022 40.9118Z" fill="white"/>
<path d="M125.591 39.7156C125.061 39.7156 124.635 40.0731 124.552 40.6712H126.649C126.636 40.0869 126.175 39.7156 125.591 39.7156ZM127.364 41.7781C127.151 42.438 126.553 42.9674 125.625 42.9674C124.539 42.9674 123.734 42.1974 123.734 41.0081C123.734 39.8188 124.504 39.0557 125.625 39.0557C126.704 39.0557 127.467 39.805 127.467 40.9187C127.467 41.0493 127.46 41.1731 127.44 41.3037H124.546C124.601 41.9293 125.047 42.3074 125.625 42.3074C126.106 42.3074 126.374 42.0737 126.519 41.7781H127.364Z" fill="white"/>
<path d="M122.219 42.9055V40.7881C122.219 40.0937 121.841 39.7363 121.271 39.7363C120.693 39.7363 120.315 40.0937 120.315 40.7881V42.9055H119.531V39.1175H120.315V39.5506C120.569 39.2413 120.989 39.0557 121.442 39.0557C122.329 39.0557 122.996 39.6125 122.996 40.6712V42.9055H122.219Z" fill="white"/>
<path d="M117.095 41.8538V39.757H116.648V39.1176H117.095V38.1758H117.886V39.1176H118.807V39.757H117.886V41.8538C117.886 42.1356 117.996 42.2525 118.326 42.2525H118.807V42.9056H118.188C117.515 42.9056 117.095 42.6237 117.095 41.8538Z" fill="white"/>
<path d="M115.12 40.9118V42.9055H114.336V39.1175H115.12V39.6675C115.34 39.2894 115.718 39.0557 116.254 39.0557V39.8669H116.055C115.477 39.8669 115.12 40.1075 115.12 40.9118Z" fill="white"/>
<path d="M109.414 40.9943C109.414 39.8256 110.205 39.0557 111.201 39.0557C111.841 39.0557 112.281 39.3582 112.515 39.6675V39.1175H113.305V42.9055H112.515V42.3418C112.274 42.6649 111.82 42.9674 111.188 42.9674C110.205 42.9674 109.414 42.163 109.414 40.9943ZM112.515 41.0081C112.515 40.1969 111.958 39.7363 111.366 39.7363C110.782 39.7363 110.218 40.1762 110.218 40.9943C110.218 41.8124 110.782 42.2868 111.366 42.2868C111.958 42.2868 112.515 41.8262 112.515 41.0081Z" fill="white"/>
<path d="M106.37 40.3274H107.236C107.848 40.3274 108.123 40.0317 108.123 39.5505C108.123 39.0555 107.848 38.7668 107.236 38.7668H106.37V40.3274ZM108.927 39.5505C108.927 40.2311 108.48 40.9667 107.236 40.9667H106.37V42.9054H105.586V38.1274H107.236C108.37 38.1274 108.927 38.7737 108.927 39.5505Z" fill="white"/>
<path d="M98.8828 40.9945C98.8828 39.8258 99.6734 39.0558 100.677 39.0558C101.172 39.0558 101.695 39.2896 101.983 39.647V37.8184H102.774V42.9057H101.983V42.3351C101.743 42.6788 101.289 42.9675 100.67 42.9675C99.6734 42.9675 98.8828 42.1632 98.8828 40.9945ZM101.983 41.0082C101.983 40.197 101.426 39.7364 100.835 39.7364C100.251 39.7364 99.6872 40.1764 99.6872 40.9945C99.6872 41.8126 100.251 42.2869 100.835 42.2869C101.426 42.2869 101.983 41.8263 101.983 41.0082Z" fill="white"/>
<path d="M97.3281 42.9057V37.8184H98.1118V42.9057H97.3281Z" fill="white"/>
<path d="M96.555 41.0081C96.555 42.1974 95.675 42.9674 94.5888 42.9674C93.5095 42.9674 92.6914 42.1974 92.6914 41.0081C92.6914 39.8188 93.5439 39.0557 94.6232 39.0557C95.7025 39.0557 96.555 39.8188 96.555 41.0081ZM93.4889 41.0081C93.4889 41.8674 93.9976 42.2868 94.5888 42.2868C95.1732 42.2868 95.7507 41.8674 95.7507 41.0081C95.7507 40.1487 95.1938 39.7363 94.6095 39.7363C94.0182 39.7363 93.4889 40.1487 93.4889 41.0081Z" fill="white"/>
<path d="M89.8077 38.0659C90.8046 38.0659 91.6639 38.5678 92.0283 39.5027H91.0864C90.832 39.0215 90.3783 38.7809 89.8077 38.7809C88.859 38.7809 88.1715 39.4546 88.1715 40.5064C88.1715 41.5583 88.859 42.2389 89.8077 42.2389C90.6739 42.2389 91.217 41.7164 91.3339 40.9121H89.5396V40.2865H92.1726V40.8983C92.0283 42.0051 91.0933 42.947 89.8077 42.947C88.4603 42.947 87.3672 41.9433 87.3672 40.5064C87.3672 39.0765 88.4603 38.0659 89.8077 38.0659Z" fill="white"/>
</svg>